<svg width="24" height="24" viewBox="0 0 24 24" fill="none" xmlns="http://www.w3.org/2000/svg">
<rect x="9.5" y="4.5" width="5" height="4" rx="2" stroke="#333A46"/>
<rect x="4.5" y="15.5" width="5" height="4" rx="2" stroke="#333A46"/>
<rect x="14.5" y="15.5" width="5" height="4" rx="2" stroke="#333A46"/>
<path d="M17 15L17 14C17 12.8954 16.1046 12 15 12L14 12C12.8954 12 12 11.1046 12 10L12 9" stroke="#333A46"/>
<path fill-rule="evenodd" clip-rule="evenodd" d="M11.2501 12.1655C11.0442 11.9044 10.8747 11.6133 10.7493 11.2998C10.5288 11.4272 10.2729 11.5001 10 11.5001L9 11.5001C7.61929 11.5001 6.5 12.6193 6.5 14.0001V15.0001H7.5V14.0001C7.5 13.1716 8.17157 12.5001 9 12.5001H10C10.4554 12.5001 10.8824 12.3783 11.2501 12.1655Z" fill="#333A46"/>
</svg>
