<svg width="24" height="24" viewBox="0 0 24 24" fill="none" xmlns="http://www.w3.org/2000/svg">
<path d="M10.3785 11.9999V11.9999C9.79271 12.5856 8.84296 12.5856 8.25718 11.9999L6.48941 10.2321C5.70836 9.45104 5.70836 8.18471 6.48941 7.40366L7.90362 5.98944C8.68467 5.2084 9.951 5.2084 10.732 5.98944L12.4998 7.75721C13.0856 8.343 13.0856 9.29274 12.4998 9.87853V9.87853" stroke="#1D2532"/>
<path d="M14.6215 11.9997V11.9997C15.2073 11.4139 16.157 11.4139 16.7428 11.9997L18.5106 13.7674C19.2916 14.5485 19.2916 15.8148 18.5106 16.5959L17.0964 18.0101C16.3153 18.7911 15.049 18.7911 14.268 18.0101L12.5002 16.2423C11.9144 15.6565 11.9144 14.7068 12.5002 14.121V14.121" stroke="#1D2532"/>
<rect x="10.0254" y="10.2319" width="1" height="6" transform="rotate(-45 10.0254 10.2319)" fill="#1D2532"/>
</svg>
