<svg width="18" height="18" viewBox="0 0 18 18" fill="none" xmlns="http://www.w3.org/2000/svg">
<path d="M10.7069 8.93591V8.93591C11.1959 8.44687 11.9888 8.44687 12.4779 8.93591L13.7599 10.218C14.3457 10.8038 14.3457 11.7535 13.7599 12.3393L12.3393 13.76C11.7535 14.3457 10.8038 14.3457 10.218 13.76L8.93589 12.4779C8.44685 11.9888 8.44685 11.1959 8.93589 10.7069V10.7069" stroke="#333A46"/>
<path d="M7.16412 8.93512V8.93512C6.67508 9.42416 5.88219 9.42416 5.39314 8.93512L4.11106 7.65304C3.52527 7.06725 3.52527 6.1175 4.11106 5.53172L5.5317 4.11108C6.11749 3.52529 7.06723 3.52529 7.65302 4.11108L8.9351 5.39316C9.42415 5.8822 9.42415 6.6751 8.9351 7.16414V7.16414" stroke="#333A46"/>
<path d="M7 7.00003L11 11" stroke="#333A46"/>
</svg>
