<svg width="24" height="24" viewBox="0 0 24 24" fill="none" xmlns="http://www.w3.org/2000/svg">
<g clip-path="url(#clip0_585_4133)">
<path fill-rule="evenodd" clip-rule="evenodd" d="M9.536 13.344C9.90933 13.344 10.656 13.3253 11.7013 12.896C12.9147 12.392 15.304 11.496 17.04 10.5627C18.2533 9.90933 18.776 9.05067 18.776 7.89333C18.776 6.30667 17.488 5 15.8827 5H9.16267C6.86667 5 5 6.86667 5 9.16267C5 11.4587 6.75467 13.344 9.536 13.344Z" fill="#39594D"/>
<path fill-rule="evenodd" clip-rule="evenodd" d="M10.6746 16.2C10.6746 15.08 11.3466 14.0534 12.3919 13.624L14.5012 12.7467C16.6479 11.8694 18.9999 13.4374 18.9999 15.752C18.9999 17.544 17.5439 19 15.7519 19H13.4559C11.9252 19 10.6746 17.7494 10.6746 16.2Z" fill="#D18EE2"/>
<path d="M7.408 13.8854C6.08267 13.8854 5 14.968 5 16.2934V16.6107C5 17.9174 6.08267 19 7.408 19C8.73333 19 9.816 17.9174 9.816 16.592V16.2747C9.79733 14.968 8.73333 13.8854 7.408 13.8854Z" fill="#FF7759"/>
</g>
<defs>
<clipPath id="clip0_585_4133">
<rect width="14" height="14" fill="white" transform="translate(5 5)"/>
</clipPath>
</defs>
</svg>
