<svg width="24" height="24" viewBox="0 0 24 24" fill="none" xmlns="http://www.w3.org/2000/svg">
<path d="M18.616 9.51618C19.0196 10.9237 19.118 12.2493 18.9702 13.2452C18.8151 14.2902 18.4309 14.7707 18.0717 14.8738C17.7124 14.9768 17.132 14.7728 16.4467 13.9688C15.7936 13.2025 15.1746 12.0262 14.771 10.6187C14.3674 9.21124 14.269 7.88563 14.4168 6.8897C14.5719 5.84473 14.9561 5.36415 15.3153 5.26114C15.6746 5.15813 16.255 5.36213 16.9403 6.16611C17.5934 6.93236 18.2124 8.10869 18.616 9.51618Z" stroke="#333A46"/>
<path d="M6.32461 12.0003C5.52828 12.2287 5.06783 13.0594 5.29618 13.8557C5.52452 14.652 6.35519 15.1125 7.15153 14.8841L10.6719 13.8747L16.5561 14.1249L16.9726 14.6687L17.4532 14.5309L18.0717 14.8737L18.007 15.0421L17.5655 15.1687L10.7916 14.8807L7.42716 15.8454C6.09994 16.226 4.71549 15.4586 4.33492 14.1313C3.95434 12.8041 4.72175 11.4197 6.04898 11.0391L9.41339 10.0744L14.4482 5.69506L14.7196 5.61724L15.2016 5.47903L14.9725 5.87956L14.7675 6.97864L14.421 7.04402L9.90229 10.9745L6.32461 12.0003Z" fill="#333A46"/>
<path d="M7.00646 15.2628L8.41912 17.7096C8.7557 18.2926 9.50113 18.4923 10.0841 18.1558V18.1558C10.6722 17.8162 10.8694 17.0616 10.5226 16.4777L9.39414 14.5781" stroke="#333A46"/>
</svg>
