<svg width="24" height="24" viewBox="0 0 24 24" fill="none" xmlns="http://www.w3.org/2000/svg">
<path fill-rule="evenodd" clip-rule="evenodd" d="M7 10.5833L7 18H17V6H11.5V9.08333C11.5 9.91176 10.8284 10.5833 10 10.5833H7ZM10.5 6V9.08333C10.5 9.35948 10.2761 9.58333 10 9.58333H7.26388L10.4491 6H10.5ZM10.4491 5C10.1634 5 9.89142 5.12215 9.70166 5.33564L6.25259 9.21584C6.08988 9.39889 6 9.63529 6 9.8802V18C6 18.5523 6.44772 19 7 19H17C17.5523 19 18 18.5523 18 18V6C18 5.44772 17.5523 5 17 5H10.4491Z" fill="#333A46"/>
</svg>
