<svg width="24" height="24" viewBox="0 0 24 24" fill="none" xmlns="http://www.w3.org/2000/svg">
<path d="M11.536 4.15543C11.704 3.73719 12.296 3.73719 12.464 4.15542L14.2107 8.505C14.2822 8.6831 14.4493 8.80454 14.6408 8.81753L19.3173 9.13462C19.7669 9.16511 19.9499 9.7282 19.604 10.0172L16.0071 13.0224C15.8598 13.1455 15.7959 13.342 15.8428 13.5281L16.9863 18.0737C17.0963 18.5107 16.6173 18.8588 16.2356 18.6191L12.2659 16.1269C12.1033 16.0249 11.8967 16.0249 11.7341 16.1269L7.76445 18.6191C7.38274 18.8588 6.90374 18.5107 7.0137 18.0737L8.15723 13.5281C8.20406 13.342 8.14021 13.1455 7.99293 13.0224L4.39599 10.0172C4.05012 9.7282 4.23308 9.16511 4.68275 9.13462L9.35918 8.81753C9.55067 8.80454 9.71783 8.6831 9.78935 8.505L11.536 4.15543Z" fill="#EBBF4F"/>
</svg>
