<svg width="22" height="22" viewBox="0 0 22 22" fill="none" xmlns="http://www.w3.org/2000/svg">
<path fill-rule="evenodd" clip-rule="evenodd" d="M10.9992 2.75C6.44362 2.75 2.75 6.44362 2.75 11.0003C2.75 14.6453 5.11365 17.7372 8.39198 18.8286C8.80474 18.9041 8.95516 18.6493 8.95516 18.4305C8.95516 18.235 8.94807 17.7159 8.94402 17.0276C6.64924 17.526 6.16507 15.9215 6.16507 15.9215C5.78978 14.9689 5.24888 14.7151 5.24888 14.7151C4.49982 14.2031 5.3056 14.2132 5.3056 14.2132C6.13367 14.272 6.56922 15.0636 6.56922 15.0636C7.30511 16.3242 8.50036 15.96 8.97036 15.7493C9.04531 15.216 9.25803 14.8524 9.49404 14.6463C7.66217 14.4381 5.7361 13.7301 5.7361 10.5687C5.7361 9.66826 6.0577 8.93186 6.58543 8.35501C6.50035 8.14634 6.21723 7.30764 6.66596 6.17165C6.66596 6.17165 7.3588 5.94982 8.9349 7.01744C9.5928 6.83461 10.2988 6.74294 11.0003 6.7399C11.7007 6.74294 12.4067 6.83461 13.0656 7.01744C14.6407 5.94982 15.332 6.17165 15.332 6.17165C15.7823 7.30764 15.4991 8.14634 15.4141 8.35501C15.9428 8.93186 16.2624 9.66826 16.2624 10.5687C16.2624 13.7382 14.3333 14.4356 12.4953 14.6397C12.7916 14.8944 13.0555 15.3979 13.0555 16.1677C13.0555 17.2702 13.0453 18.1601 13.0453 18.4305C13.0453 18.6514 13.1937 18.9081 13.6126 18.8276C16.8884 17.7342 19.25 14.6442 19.25 11.0003C19.25 6.44362 15.5559 2.75 10.9992 2.75Z" fill="#323E4F"/>
</svg>
