<svg width="23" height="22" viewBox="0 0 23 22" fill="none" xmlns="http://www.w3.org/2000/svg">
<path fill-rule="evenodd" clip-rule="evenodd" d="M18.98 11.1768C18.98 10.6243 18.9304 10.093 18.8383 9.58301H11.5V12.597H15.6933C15.5127 13.5709 14.9638 14.3961 14.1385 14.9486V16.9036H16.6567C18.13 15.5472 18.98 13.5497 18.98 11.1768Z" fill="#4285F4"/>
<path fill-rule="evenodd" clip-rule="evenodd" d="M11.5 18.7917C13.6038 18.7917 15.3675 18.094 16.6567 16.904L14.1386 14.949C13.4409 15.4165 12.5484 15.6928 11.5 15.6928C9.47066 15.6928 7.75295 14.3221 7.14024 12.4805H4.53711V14.4992C5.81919 17.0457 8.4542 18.7917 11.5 18.7917Z" fill="#34A853"/>
<path fill-rule="evenodd" clip-rule="evenodd" d="M7.13989 12.4806C6.98405 12.0131 6.89551 11.5137 6.89551 11.0001C6.89551 10.4866 6.98405 9.98723 7.13989 9.51973V7.50098H4.53676C4.00905 8.55285 3.70801 9.74285 3.70801 11.0001C3.70801 12.2574 4.00905 13.4474 4.53676 14.4993L7.13989 12.4806Z" fill="#FBBC05"/>
<path fill-rule="evenodd" clip-rule="evenodd" d="M11.5 6.30697C12.644 6.30697 13.6711 6.7001 14.4786 7.47218L16.7134 5.23739C15.364 3.98009 13.6002 3.20801 11.5 3.20801C8.4542 3.20801 5.81919 4.95405 4.53711 7.50051L7.14024 9.51927C7.75295 7.6776 9.47066 6.30697 11.5 6.30697Z" fill="#EA4335"/>
</svg>
