<svg width="166" height="26" viewBox="0 0 166 26" fill="none" xmlns="http://www.w3.org/2000/svg">
<ellipse cx="18.1499" cy="12.8663" rx="4.75659" ry="4.75659" fill="#130234"/>
<path fill-rule="evenodd" clip-rule="evenodd" d="M11.9647 0.500122L0.753174 9.46938L7.52812 20.4787H13.1132L7.00768 10.5572L18.3477 1.48516L17.3627 0.500122H11.9647Z" fill="#130234"/>
<path d="M38.94 10.0229H41.7654C44.1827 10.0229 45.7838 9.14386 45.7838 7.16607C45.7838 5.565 44.9675 4.96852 43.0211 4.96852H40.1957L38.94 10.0229ZM37.8726 14.2924L36.3343 20.4769H31.0288L35.9576 0.699005H44.1827C48.7034 0.699005 51.0893 3.33606 51.0893 6.69517C51.0893 11.8123 47.1651 14.2924 41.4515 14.2924H37.8726Z" fill="#130234"/>
<path d="M54.1273 0.699005H59.2131L54.2843 20.4769H49.1985L54.1273 0.699005Z" fill="#130234"/>
<path d="M66.3394 14.7319L66.3708 14.5749L63.8907 14.8889C62.6664 15.0458 62.0385 15.4853 62.0385 16.4272C62.0385 17.1178 62.5408 17.5259 63.3256 17.5259C64.6127 17.5259 65.9941 16.5213 66.3394 14.7319ZM71.896 12.0949L70.8287 16.3644C70.6403 17.0864 70.8914 17.4004 71.4251 17.4004C71.8333 17.4004 72.1472 17.3376 72.6181 17.1806L71.9274 19.8804C71.0798 20.3827 70.138 20.7909 68.8823 20.7909C67.0614 20.7909 65.9313 19.8804 65.8057 18.3736C64.8639 19.9746 63.2 20.7909 61.1281 20.7909C58.4596 20.7909 57.0155 19.3468 57.0155 17.212C57.0155 14.3552 59.2131 12.9425 62.7291 12.5658L66.9987 12.1262L67.0928 11.7181C67.3754 10.5566 66.9673 9.86591 65.7429 9.86591C64.6127 9.86591 63.9535 10.3996 63.4826 11.4356L58.7108 11.1217C59.8095 8.10787 62.3838 6.09869 66.5905 6.09869C70.295 6.09869 72.8692 8.20205 71.896 12.0949Z" fill="#130234"/>
<path d="M77.9886 25.4999H72.9342L76.2933 20.3827L74.0016 6.47541H78.899L80.092 14.8889H80.2175L85.3661 6.47541H90.7971L77.9886 25.4999Z" fill="#130234"/>
<path d="M95.6626 20.4769H90.3257L95.2545 0.699005H110.198L109.099 5.0941H99.4927L98.5508 8.89271H105.771L104.673 13.225H97.4521L95.6626 20.4769Z" fill="#130234"/>
<path d="M117.436 15.4853L121.486 15.8621C120.355 19.0642 117.467 20.8536 113.888 20.8536C109.682 20.8536 107.013 18.4991 107.013 14.7005C107.013 9.80312 110.749 6.09869 115.615 6.09869C119.979 6.09869 121.988 8.86132 121.988 12.2518C121.988 13.0367 121.925 13.6331 121.705 14.4494H111.848C111.848 16.2074 112.821 17.055 114.359 17.055C115.741 17.055 116.839 16.5841 117.436 15.4853ZM112.224 12.0635H117.216C117.247 10.7763 116.745 9.74034 115.175 9.74034C113.606 9.74034 112.633 10.7449 112.224 12.0635Z" fill="#130234"/>
<path d="M123.579 15.8307L125.055 9.99149H123.171L123.956 6.85213L125.023 6.69517C126.499 6.47541 127.127 5.72197 127.786 4.43483L128.696 2.61401H131.899L130.957 6.47541H134.598L133.719 9.99149H130.078L128.759 15.2028C128.477 16.3958 128.916 16.8667 129.952 16.8667C130.58 16.8667 131.271 16.8353 132.213 16.4899L131.396 19.6921C130.141 20.3827 129.042 20.8536 127.127 20.8536C124.553 20.8536 122.732 19.1584 123.579 15.8307Z" fill="#130234"/>
<path d="M133.701 14.6063C133.701 9.77173 137.468 6.09869 142.271 6.09869C146.572 6.09869 148.644 8.82993 148.455 12.189L144.249 12.4716C144.186 10.9019 143.652 9.9287 142.177 9.9287C140.011 9.9287 138.786 12.2832 138.786 14.6063C138.786 16.2702 139.697 17.0236 140.952 17.0236C142.491 17.0236 143.433 16.176 143.998 14.4494L148.11 14.7633C147.325 18.1538 144.657 20.8536 140.45 20.8536C136.369 20.8536 133.701 18.3422 133.701 14.6063Z" fill="#130234"/>
<path d="M155.048 13.6017L153.353 20.4769H148.267L153.196 0.699005H158.282L156.304 8.61017C157.434 7.07189 158.878 6.09869 161.013 6.09869C164.592 6.09869 165.785 8.92411 165.031 11.9693L162.928 20.4769H157.842L159.694 13.0367C160.165 11.1217 159.726 10.1171 158.187 10.1171C156.461 10.1171 155.582 11.4984 155.048 13.6017Z" fill="#130234"/>
</svg>
