<svg width="24" height="24" viewBox="0 0 24 24" fill="none" xmlns="http://www.w3.org/2000/svg">
<g clip-path="url(#clip0_583_93939)">
<path d="M18.853 10.5485C19.216 9.45895 19.091 8.26545 18.5105 7.27445C17.6375 5.75445 15.8825 4.97245 14.1685 5.34045C13.406 4.48145 12.3105 3.99295 11.162 3.99995C9.40996 3.99595 7.85546 5.12395 7.31646 6.79095C6.19096 7.02145 5.21946 7.72595 4.65096 8.72445C3.77146 10.2405 3.97196 12.1515 5.14696 13.4515C4.78396 14.541 4.90896 15.7345 5.48946 16.7255C6.36246 18.2455 8.11746 19.0275 9.83146 18.6595C10.5935 19.5185 11.6895 20.007 12.838 19.9995C14.591 20.004 16.146 18.875 16.685 17.2065C17.8105 16.976 18.782 16.2715 19.3505 15.273C20.229 13.757 20.028 11.8475 18.8535 10.5475L18.853 10.5485ZM12.839 18.954C12.1375 18.955 11.458 18.7095 10.9195 18.26C10.944 18.247 10.9865 18.2235 11.014 18.2065L14.2 16.3665C14.363 16.274 14.463 16.1005 14.462 15.913V11.4215L15.8085 12.199C15.823 12.206 15.8325 12.22 15.8345 12.236V15.9555C15.8325 17.6095 14.493 18.9505 12.839 18.954ZM6.39696 16.2025C6.04546 15.5955 5.91896 14.884 6.03946 14.1935C6.06296 14.2075 6.10446 14.233 6.13396 14.25L9.31996 16.09C9.48146 16.1845 9.68146 16.1845 9.84346 16.09L13.733 13.844V15.399C13.734 15.415 13.7265 15.4305 13.714 15.4405L10.4935 17.3C9.05896 18.126 7.22696 17.635 6.39746 16.2025H6.39696ZM5.55846 9.24795C5.90846 8.63995 6.46096 8.17495 7.11896 7.93345C7.11896 7.96095 7.11746 8.00945 7.11746 8.04345V11.724C7.11646 11.911 7.21646 12.0845 7.37896 12.177L11.2685 14.4225L9.92196 15.2C9.90846 15.209 9.89146 15.2105 9.87646 15.204L6.65546 13.343C5.22396 12.514 4.73296 10.6825 5.55796 9.24845L5.55846 9.24795ZM16.6215 11.8225L12.732 9.57645L14.0785 8.79945C14.092 8.79045 14.109 8.78895 14.124 8.79545L17.345 10.655C18.779 11.4835 19.2705 13.318 18.442 14.752C18.0915 15.359 17.5395 15.824 16.882 16.066V12.2755C16.8835 12.0885 16.784 11.9155 16.622 11.8225H16.6215ZM17.9615 9.80545C17.938 9.79095 17.8965 9.76595 17.867 9.74895L14.681 7.90895C14.5195 7.81445 14.3195 7.81445 14.1575 7.90895L10.268 10.155V8.59995C10.267 8.58395 10.2745 8.56845 10.287 8.55845L13.5075 6.70045C14.942 5.87295 16.776 6.36545 17.603 7.80045C17.9525 8.40645 18.079 9.11595 17.9605 9.80545H17.9615ZM9.53596 12.577L8.18896 11.7995C8.17446 11.7925 8.16496 11.7785 8.16296 11.7625V8.04295C8.16396 6.38695 9.50746 5.04495 11.1635 5.04595C11.864 5.04595 12.542 5.29195 13.0805 5.73995C13.056 5.75295 13.014 5.77645 12.986 5.79345L9.79996 7.63345C9.63696 7.72595 9.53696 7.89895 9.53796 8.08645L9.53596 12.576V12.577ZM10.2675 11L12 9.99945L13.7325 10.9995V13L12 14L10.2675 13V11Z" fill="#333A46"/>
</g>
<defs>
<clipPath id="clip0_583_93939">
<rect width="16" height="16" fill="white" transform="translate(4 4)"/>
</clipPath>
</defs>
</svg>
