<svg width="24" height="24" viewBox="0 0 24 24" fill="none" xmlns="http://www.w3.org/2000/svg">
<g clip-path="url(#clip0_1031_4051)">
<path d="M10.7896 5.09773C11.3571 5.09773 11.8172 4.63767 11.8172 4.07015C11.8172 3.50264 11.3571 3.04258 10.7896 3.04258C10.2221 3.04258 9.76202 3.50264 9.76202 4.07015C9.76202 4.63767 10.2221 5.09773 10.7896 5.09773ZM16.4906 6.9726L17.5061 6.67173L16.7 3.95124C16.6296 3.71352 16.4036 3.5565 16.1563 3.57335L15.9073 3.59044L15.9012 3.58541L13.3143 3.76694L13.3863 4.82359L15.1243 4.70564L13.9865 6.34702L14.8569 6.95048L15.9962 5.30706L16.4906 6.9726ZM5.43829 8.85328L6.49474 8.77844L6.37099 7.0407L8.00938 8.17999L8.6142 7.31058L6.97367 6.1701L8.64817 5.67669L8.34886 4.66076L5.61553 5.46605C5.3769 5.53635 5.21938 5.76328 5.23696 6.01143L5.43829 8.85328ZM12.2595 10.333L14.1662 8.03103L13.3068 7.31926L12.1721 8.68924L11.8042 6.58288L10.705 6.77502L11.0733 8.88467L9.5456 7.98394L8.97922 8.94535L11.5466 10.4579C11.7826 10.5969 12.0847 10.544 12.2595 10.333ZM17.594 11.8775L18.5465 12.3957L19.9341 9.8454C20.0556 9.62199 20.0055 9.34411 19.8136 9.17721L19.6173 9.0076L17.6141 7.26429L16.9026 8.08246L18.2493 9.25409L16.2433 9.61546L16.4358 10.6826L18.4403 10.3214L17.594 11.8775ZM6.36139 14.5438L7.07889 13.7308L5.75066 12.5594L7.76043 12.2085L7.57415 11.1403L5.56217 11.4914L6.42638 9.92909L5.47757 9.40421L4.06777 11.9527C3.94469 12.1752 3.99278 12.4534 4.18343 12.6216L6.36139 14.5438ZM13.1548 15.3825L15.055 13.0867L14.1954 12.3752L13.061 13.7458L12.6931 11.6388L11.5939 11.831L11.9609 13.9324L10.4391 13.0403L9.87485 14.003L12.2124 15.3735L12.2147 15.3824L12.225 15.3811L12.4429 15.5081C12.6789 15.6464 12.9803 15.5932 13.1548 15.3825ZM15.6035 16.5116L16.0191 17.5131L18.7074 16.3975C18.942 16.3001 19.0776 16.0529 19.0335 15.8027L18.9888 15.5538L18.5297 12.9425L17.4618 13.1306L17.7695 14.8787L15.986 13.8929L15.4619 14.8422L17.2488 15.8287L15.6035 16.5116ZM10.4823 18.4852L10.5285 17.4018L8.7527 17.3259L10.0921 15.7953L9.27603 15.0813L7.93442 16.6142L7.62185 14.8641L6.55448 15.0551L7.06601 17.915C7.11072 18.1649 7.3229 18.3504 7.57659 18.3612L7.82788 18.3724L7.83352 18.3765L10.4823 18.4852ZM14.1149 20.7955L16.0066 18.4852L15.1432 17.7783L14.0205 19.1497L13.6418 17.0455L12.5436 17.2431L12.9229 19.3521L11.39 18.4559L10.827 19.4193L13.4017 20.9238C13.6386 21.0622 13.941 21.0078 14.1149 20.7955Z" fill="#333A46"/>
</g>
<defs>
<clipPath id="clip0_1031_4051">
<rect width="16" height="18" fill="white" transform="matrix(1 0 0 -1 4 21)"/>
</clipPath>
</defs>
</svg>
