<svg width="24" height="24" viewBox="0 0 24 24" fill="none" xmlns="http://www.w3.org/2000/svg">
<path fill-rule="evenodd" clip-rule="evenodd" d="M12 15C13.6569 15 15 13.6569 15 12C15 10.3431 13.6569 9 12 9C10.3431 9 9 10.3431 9 12C9 13.6569 10.3431 15 12 15ZM14 12C14 13.1046 13.1046 14 12 14C10.8954 14 10 13.1046 10 12C10 10.8954 10.8954 10 12 10C13.1046 10 14 10.8954 14 12Z" fill="#333A46"/>
<path fill-rule="evenodd" clip-rule="evenodd" d="M6.2609 10.2465L4.68377 10.7722C4.27543 10.9083 4 11.2904 4 11.7208V12.2794C4 12.7098 4.27543 13.0919 4.68377 13.228L6.26091 13.7537C6.37221 14.1191 6.51914 14.476 6.7017 14.8189L5.95851 16.3053C5.76601 16.6903 5.84147 17.1552 6.14583 17.4596L6.54075 17.8545C6.84511 18.1589 7.31008 18.2343 7.69507 18.0418L9.18151 17.2986C9.52437 17.4812 9.88122 17.6281 10.2466 17.7394L10.7723 19.3164C10.9084 19.7248 11.2905 20.0002 11.721 20.0002H12.2795C12.7099 20.0002 13.092 19.7248 13.2282 19.3164L13.7538 17.7393C14.1192 17.628 14.476 17.4811 14.8188 17.2986L16.3053 18.0418C16.6902 18.2343 17.1552 18.1589 17.4596 17.8545L17.8545 17.4596C18.1589 17.1552 18.2343 16.6903 18.0418 16.3053L17.2986 14.8189C17.4812 14.476 17.6281 14.1191 17.7394 13.7537L19.3164 13.228C19.7248 13.0919 20.0002 12.7098 20.0002 12.2794V11.7208C20.0002 11.2904 19.7248 10.9083 19.3164 10.7722L17.7394 10.2465C17.6281 9.88113 17.4812 9.52431 17.2987 9.18147L18.0419 7.69498C18.2344 7.30999 18.159 6.84502 17.8546 6.54066L17.4597 6.14574C17.1553 5.84138 16.6903 5.76592 16.3054 5.95842L14.8189 6.70164C14.4761 6.51909 14.1192 6.37216 13.7538 6.26086L13.2282 4.68377C13.092 4.27543 12.7099 4 12.2795 4H11.721C11.2905 4 10.9084 4.27543 10.7723 4.68377L10.2466 6.26082C9.88118 6.37213 9.5243 6.51906 9.1814 6.70164L7.69496 5.95842C7.30997 5.76592 6.845 5.84138 6.54064 6.14574L6.14572 6.54066C5.84136 6.84502 5.7659 7.30999 5.9584 7.69498L6.70163 9.18145C6.5191 9.52429 6.37219 9.88111 6.2609 10.2465ZM12.8052 6.57709C12.9076 6.88441 13.1526 7.12307 13.4625 7.21747C13.7667 7.31016 14.0637 7.43245 14.3489 7.58432C14.6347 7.73649 14.9765 7.74087 15.2661 7.59607L16.7526 6.85284L17.1475 7.24777L16.4043 8.73425C16.2595 9.02385 16.2638 9.36563 16.416 9.65142C16.5678 9.93663 16.6901 10.2336 16.7828 10.5379C16.8772 10.8478 17.1159 11.0927 17.4232 11.1952L19.0002 11.7208L19.0002 12.2794L17.4232 12.805C17.1159 12.9075 16.8772 13.1524 16.7828 13.4623C16.6901 13.7666 16.5678 14.0636 16.4159 14.3489C16.2638 14.6347 16.2594 14.9765 16.4042 15.2661L17.1474 16.7525L16.7525 17.1474L15.266 16.4042C14.9764 16.2594 14.6346 16.2638 14.3488 16.4159C14.0637 16.5678 13.7667 16.69 13.4625 16.7827C13.1526 16.8771 12.9076 17.1158 12.8052 17.4231L12.2795 19.0002L11.721 19.0002L11.1953 17.4231C11.0928 17.1158 10.8479 16.8772 10.538 16.7828C10.2337 16.6901 9.93669 16.5678 9.65147 16.4159C9.36567 16.2638 9.02389 16.2594 8.7343 16.4042L7.24786 17.1474L6.85293 16.7525L7.59613 15.2661C7.74093 14.9765 7.73656 14.6347 7.58438 14.3489C7.43251 14.0637 7.31021 13.7667 7.21751 13.4624C7.12312 13.1525 6.88446 12.9075 6.57713 12.8051L5 12.2794L5 11.7208L6.57713 11.1951C6.88445 11.0927 7.12311 10.8477 7.21751 10.5378C7.31019 10.2336 7.43248 9.93661 7.58432 9.65141C7.73648 9.36562 7.74086 9.02384 7.59606 8.73424L6.85282 7.24777L7.24775 6.85284L8.73419 7.59606C9.02379 7.74086 9.36558 7.73649 9.65138 7.58431C9.93663 7.43244 10.2336 7.31013 10.538 7.21743C10.8479 7.12304 11.0928 6.88438 11.1953 6.57705L11.721 5L12.2795 5L12.8052 6.57709Z" fill="#333A46"/>
</svg>
