<svg width="24" height="24" viewBox="0 0 24 24" fill="none" xmlns="http://www.w3.org/2000/svg">
<mask id="path-1-inside-1_1052_1085" fill="white">
<path fill-rule="evenodd" clip-rule="evenodd" d="M10.7723 4.68377C10.9084 4.27543 11.2905 4 11.721 4H12.2795C12.7099 4 13.092 4.27543 13.2282 4.68377L13.7538 6.26083C14.1192 6.37214 14.476 6.51908 14.8189 6.70165L16.3054 5.95842C16.6903 5.76592 17.1553 5.84138 17.4597 6.14574L17.8546 6.54066C18.159 6.84502 18.2344 7.30999 18.0419 7.69498L17.2986 9.18162C17.4811 9.5244 17.6279 9.88115 17.7392 10.2464L19.3164 10.7722C19.7248 10.9083 20.0002 11.2904 20.0002 11.7208V12.2794C20.0002 12.7098 19.7248 13.0919 19.3164 13.228L17.7391 13.7538C17.6279 14.1191 17.481 14.4758 17.2985 14.8186L18.0418 16.3053C18.2343 16.6903 18.1589 17.1552 17.8545 17.4596L17.4596 17.8545C17.1552 18.1589 16.6902 18.2343 16.3053 18.0418L14.8186 17.2985C14.4759 17.481 14.1191 17.6279 13.7539 17.7392L13.2282 19.3164C13.092 19.7248 12.7099 20.0002 12.2795 20.0002H11.721C11.2905 20.0002 10.9084 19.7248 10.7723 19.3164L10.2466 17.7393C9.88121 17.6281 9.52436 17.4812 9.1815 17.2986L7.69507 18.0418C7.31008 18.2343 6.84511 18.1589 6.54075 17.8545L6.14583 17.4596C5.84147 17.1552 5.76601 16.6903 5.95851 16.3053L6.70163 14.819C6.519 14.4761 6.37203 14.1192 6.2607 13.7537L4.68377 13.228C4.27543 13.0919 4 12.7098 4 12.2794V11.7208C4 11.2904 4.27543 10.9083 4.68377 10.7722L6.26063 10.2465C6.37194 9.88108 6.5189 9.52414 6.7015 9.1812L5.9584 7.69498C5.7659 7.30999 5.84136 6.84502 6.14572 6.54066L6.54064 6.14574C6.845 5.84138 7.30997 5.76592 7.69496 5.95842L9.18119 6.70153C9.52417 6.51892 9.88115 6.37195 10.2467 6.26064L10.7723 4.68377Z"/>
</mask>
<path d="M10.7723 4.68377L9.82359 4.36754V4.36754L10.7723 4.68377ZM13.2282 4.68377L14.1768 4.36754L14.1768 4.36754L13.2282 4.68377ZM13.7538 6.26083L12.8052 6.57705C12.9076 6.88436 13.1525 7.12301 13.4624 7.21742L13.7538 6.26083ZM14.8189 6.70165L14.3489 7.58431C14.6347 7.7365 14.9765 7.74088 15.2661 7.59607L14.8189 6.70165ZM16.3054 5.95842L15.8581 5.06399H15.8581L16.3054 5.95842ZM17.4597 6.14574L18.1668 5.43863V5.43863L17.4597 6.14574ZM18.0419 7.69498L17.1475 7.24777V7.24777L18.0419 7.69498ZM17.2986 9.18162L16.4042 8.73441C16.2594 9.02399 16.2638 9.36575 16.4159 9.65154L17.2986 9.18162ZM17.7392 10.2464L16.7826 10.5378C16.877 10.8477 17.1157 11.0927 17.423 11.1951L17.7392 10.2464ZM19.3164 10.7722L19.0002 11.7208L19.3164 10.7722ZM19.3164 13.228L19.6327 14.1767L19.3164 13.228ZM17.7391 13.7538L17.4229 12.8051C17.1156 12.9076 16.8769 13.1525 16.7825 13.4624L17.7391 13.7538ZM17.2985 14.8186L16.4158 14.3487C16.2636 14.6344 16.2593 14.9762 16.4041 15.2658L17.2985 14.8186ZM14.8186 17.2985L15.2658 16.4041C14.9762 16.2593 14.6344 16.2637 14.3486 16.4158L14.8186 17.2985ZM13.7539 17.7392L13.4625 16.7826C13.1526 16.877 12.9077 17.1156 12.8052 17.4229L13.7539 17.7392ZM10.7723 19.3164L9.82359 19.6327L10.7723 19.3164ZM10.2466 17.7393L11.1953 17.4231C11.0928 17.1158 10.8478 16.8771 10.5379 16.7827L10.2466 17.7393ZM9.1815 17.2986L9.65142 16.4159C9.36563 16.2638 9.02387 16.2594 8.73428 16.4042L9.1815 17.2986ZM7.69507 18.0418L7.24786 17.1474H7.24786L7.69507 18.0418ZM6.14583 17.4596L5.43872 18.1667H5.43872L6.14583 17.4596ZM5.95851 16.3053L5.06408 15.8581L5.06408 15.8581L5.95851 16.3053ZM6.70163 14.819L7.59605 15.2663C7.74086 14.9766 7.73648 14.6348 7.58428 14.349L6.70163 14.819ZM6.2607 13.7537L7.2173 13.4623C7.12291 13.1524 6.88425 12.9074 6.57693 12.805L6.2607 13.7537ZM4.68377 13.228L4.36754 14.1767L4.36754 14.1767L4.68377 13.228ZM4.68377 10.7722L4.36755 9.82348H4.36754L4.68377 10.7722ZM6.26063 10.2465L6.57686 11.1952C6.88419 11.0928 7.12286 10.8478 7.21725 10.5379L6.26063 10.2465ZM6.7015 9.1812L7.58418 9.65118C7.73635 9.36538 7.74073 9.02359 7.59593 8.73398L6.7015 9.1812ZM5.9584 7.69498L5.06397 8.14219H5.06397L5.9584 7.69498ZM6.14572 6.54066L5.43861 5.83355L5.43861 5.83355L6.14572 6.54066ZM6.54064 6.14574L5.83353 5.43863L5.83353 5.43863L6.54064 6.14574ZM7.69496 5.95842L7.24775 6.85284H7.24775L7.69496 5.95842ZM9.18119 6.70153L8.73398 7.59596C9.02358 7.74076 9.36537 7.73638 9.65117 7.58421L9.18119 6.70153ZM10.2467 6.26064L10.538 7.21726C10.8479 7.12288 11.0929 6.88421 11.1953 6.57687L10.2467 6.26064ZM11.721 3C10.8601 3 10.0958 3.55086 9.82359 4.36754L11.721 5L11.721 5V3ZM12.2795 3H11.721V5H12.2795V3ZM14.1768 4.36754C13.9046 3.55086 13.1403 3 12.2795 3V5L12.2795 5L14.1768 4.36754ZM14.7025 5.9446L14.1768 4.36754L12.2795 5L12.8052 6.57705L14.7025 5.9446ZM13.4624 7.21742C13.7667 7.31012 14.0637 7.43243 14.3489 7.58431L15.2889 5.81899C14.8884 5.60572 14.4717 5.43415 14.0453 5.30423L13.4624 7.21742ZM15.8581 5.06399L14.3717 5.80722L15.2661 7.59607L16.7526 6.85284L15.8581 5.06399ZM18.1668 5.43863C17.5581 4.82991 16.6281 4.679 15.8581 5.06399L16.7526 6.85284H16.7526L18.1668 5.43863ZM18.5617 5.83355L18.1668 5.43863L16.7526 6.85284L17.1475 7.24777L18.5617 5.83355ZM18.9364 8.14219C19.3213 7.37222 19.1704 6.44227 18.5617 5.83355L17.1475 7.24777L18.9364 8.14219ZM18.193 9.62883L18.9364 8.14219L17.1475 7.24777L16.4042 8.73441L18.193 9.62883ZM16.4159 9.65154C16.5677 9.93668 16.6899 10.2336 16.7826 10.5378L18.6958 9.95504C18.566 9.52871 18.3945 9.11211 18.1813 8.71171L16.4159 9.65154ZM17.423 11.1951L19.0002 11.7208L19.6327 9.82348L18.0554 9.29774L17.423 11.1951ZM19.0002 11.7208L19.0002 11.7208H21.0002C21.0002 10.86 20.4494 10.0957 19.6327 9.82348L19.0002 11.7208ZM19.0002 11.7208V12.2794H21.0002V11.7208H19.0002ZM19.0002 12.2794L19.6327 14.1767C20.4494 13.9045 21.0002 13.1402 21.0002 12.2794H19.0002ZM19.0002 12.2794L17.4229 12.8051L18.0554 14.7025L19.6327 14.1767L19.0002 12.2794ZM16.7825 13.4624C16.6899 13.7666 16.5676 14.0635 16.4158 14.3487L18.1812 15.2886C18.3944 14.8882 18.5659 14.4716 18.6957 14.0452L16.7825 13.4624ZM18.9362 15.8581L18.1929 14.3714L16.4041 15.2658L17.1474 16.7525L18.9362 15.8581ZM18.5616 18.1667C19.1703 17.558 19.3212 16.628 18.9362 15.8581L17.1474 16.7525L17.1474 16.7525L18.5616 18.1667ZM18.1667 18.5616L18.5616 18.1667L17.1474 16.7525L16.7525 17.1474L18.1667 18.5616ZM15.858 18.9363C16.628 19.3213 17.558 19.1703 18.1667 18.5616L16.7525 17.1474H16.7525L15.858 18.9363ZM14.3714 18.1929L15.858 18.9363L16.7525 17.1474L15.2658 16.4041L14.3714 18.1929ZM14.3486 16.4158C14.0635 16.5676 13.7666 16.6899 13.4625 16.7826L14.0454 18.6957C14.4716 18.5659 14.8882 18.3944 15.2886 18.1812L14.3486 16.4158ZM14.1768 19.6327L14.7026 18.0554L12.8052 17.4229L12.2795 19.0002L14.1768 19.6327ZM12.2795 21.0002C13.1403 21.0002 13.9046 20.4493 14.1768 19.6327L12.2795 19.0002V21.0002ZM11.721 21.0002H12.2795V19.0002H11.721V21.0002ZM9.82359 19.6327C10.0958 20.4493 10.8601 21.0002 11.721 21.0002V19.0002L11.721 19.0002L9.82359 19.6327ZM9.2979 18.0556L9.82359 19.6327L11.721 19.0002L11.1953 17.4231L9.2979 18.0556ZM10.5379 16.7827C10.2336 16.69 9.93664 16.5678 9.65142 16.4159L8.71157 18.1813C9.11208 18.3946 9.52879 18.5661 9.95524 18.696L10.5379 16.7827ZM8.73428 16.4042L7.24786 17.1474L8.14228 18.9363L9.62871 18.1931L8.73428 16.4042ZM7.24786 17.1474L5.83364 18.5616C6.44236 19.1703 7.37231 19.3213 8.14228 18.9363L7.24786 17.1474ZM7.24786 17.1474L6.85293 16.7525L5.43872 18.1667L5.83364 18.5616L7.24786 17.1474ZM6.85293 16.7525V16.7525L5.06408 15.8581C4.67909 16.628 4.83 17.558 5.43872 18.1667L6.85293 16.7525ZM6.85293 16.7525L7.59605 15.2663L5.8072 14.3718L5.06408 15.8581L6.85293 16.7525ZM7.58428 14.349C7.43236 14.0637 7.31002 13.7667 7.2173 13.4623L5.3041 14.0451C5.43404 14.4716 5.60565 14.8885 5.81897 15.2891L7.58428 14.349ZM4.36754 14.1767L5.94447 14.7024L6.57693 12.805L5 12.2794L4.36754 14.1767ZM3 12.2794C3 13.1402 3.55086 13.9045 4.36754 14.1767L5 12.2794L5 12.2794H3ZM3 11.7208V12.2794H5V11.7208H3ZM4.36754 9.82348C3.55086 10.0957 3 10.86 3 11.7208H5L5 11.7208L4.36754 9.82348ZM5.94441 9.29786L4.36755 9.82348L5 11.7208L6.57686 11.1952L5.94441 9.29786ZM7.21725 10.5379C7.30995 10.2335 7.43227 9.93647 7.58418 9.65118L5.81883 8.71121C5.60553 9.11181 5.43394 9.52863 5.30402 9.95518L7.21725 10.5379ZM7.59593 8.73398L6.85282 7.24777L5.06397 8.14219L5.80708 9.62841L7.59593 8.73398ZM6.85282 7.24777L6.85282 7.24777L5.43861 5.83355C4.82989 6.44227 4.67898 7.37222 5.06397 8.14219L6.85282 7.24777ZM6.85282 7.24777L7.24775 6.85284L5.83353 5.43863L5.43861 5.83355L6.85282 7.24777ZM7.24775 6.85284H7.24775L8.14217 5.06399C7.3722 4.679 6.44225 4.82991 5.83353 5.43863L7.24775 6.85284ZM7.24775 6.85284L8.73398 7.59596L9.62841 5.80711L8.14217 5.06399L7.24775 6.85284ZM9.65117 7.58421C9.93649 7.4323 10.2336 7.30997 10.538 7.21726L9.95533 5.30402C9.52872 5.43394 9.11186 5.60554 8.71122 5.81885L9.65117 7.58421ZM9.82359 4.36754L9.29797 5.94441L11.1953 6.57687L11.721 5L9.82359 4.36754Z" fill="#333A46" mask="url(#path-1-inside-1_1052_1085)"/>
<circle cx="12" cy="12" r="2.5" stroke="#333A46"/>
</svg>
