<svg width="25" height="24" viewBox="0 0 25 24" fill="none" xmlns="http://www.w3.org/2000/svg">
<path d="M15.1605 9.65961L19.3324 9.94249L16.1235 12.6235C15.9173 12.7958 15.8279 13.0709 15.8935 13.3315L16.3784 13.2095L15.8935 13.3315L16.9136 17.3866L13.3722 15.1633C13.1446 15.0204 12.8554 15.0204 12.6278 15.1633L9.08638 17.3866L10.1065 13.3315C10.1721 13.0709 10.0827 12.7958 9.87651 12.6235L9.55592 13.0072L9.87651 12.6235L6.66763 9.94249L10.8395 9.65961C11.1076 9.64143 11.3416 9.47141 11.4418 9.22207L13 5.34175L14.5582 9.22207C14.6584 9.47141 14.8924 9.64143 15.1605 9.65961Z" stroke="#1D2532"/>
</svg>
