<svg width="24" height="24" viewBox="0 0 24 24" fill="none" xmlns="http://www.w3.org/2000/svg">
<path transform="scale(1,-1) translate(0,-24)" d="M4.5 9C4.5 8.72386 4.72386 8.5 5 8.5H7C7.27614 8.5 7.5 8.72386 7.5 9V17C7.5 17.2761 7.27614 17.5 7 17.5H5C4.72386 17.5 4.5 17.2761 4.5 17V9Z" fill="#333A46" stroke="#333A46"/>
<path transform="scale(1,-1) translate(0,-24)" fill-rule="evenodd" clip-rule="evenodd" d="M12.9215 3.63087C12.4415 3.63087 12.0209 3.95212 11.8946 4.41519L10.8251 8.33681C10.6402 9.01469 10.0245 9.48496 9.3219 9.48496V10.5493V15.5699V16.4034V16.8112L10.6712 17.6208C11.0848 17.8689 11.558 18 12.0403 18H16.5831C17.8743 18 18.9792 17.073 19.2036 15.8015L19.9584 11.5245C20.2804 9.69955 18.6851 8.1125 16.8619 8.44399L14.7115 8.83498L15.0563 5.38631C15.1503 4.44643 14.4122 3.63087 13.4677 3.63087H12.9215Z" fill="#333A46"/>
</svg>
