<svg width="24" height="24" viewBox="0 0 24 24" fill="none" xmlns="http://www.w3.org/2000/svg">
<path d="M4.5 9C4.5 8.72386 4.72386 8.5 5 8.5H7C7.27614 8.5 7.5 8.72386 7.5 9V17C7.5 17.2761 7.27614 17.5 7 17.5H5C4.72386 17.5 4.5 17.2761 4.5 17V9Z" stroke="#333A46"/>
<path fill-rule="evenodd" clip-rule="evenodd" d="M12.9367 3.63098C12.4578 3.63098 12.0381 3.95154 11.9121 4.41362L10.8448 8.32681C10.6604 9.00323 10.046 9.47249 9.34485 9.47249V10.5346C10.5249 10.5346 11.559 9.74476 11.8695 8.60626L12.9367 4.69307L13.4817 4.69307C13.7959 4.69307 14.0414 4.96434 14.0101 5.27696L13.666 8.71823C13.5957 9.4209 14.218 9.9952 14.9128 9.86887L17.0586 9.47872C18.1502 9.28026 19.1053 10.2304 18.9125 11.323L18.1594 15.5909C18.025 16.3522 17.3635 16.9071 16.5905 16.9071H12.0574C11.7687 16.9071 11.4853 16.8287 11.2377 16.6801L9.34485 15.5444V16.783L10.6913 17.5908C11.104 17.8384 11.5762 17.9692 12.0574 17.9692H16.5905C17.8789 17.9692 18.9814 17.0443 19.2053 15.7754L19.9585 11.5076C20.2798 9.68663 18.6879 8.10298 16.8687 8.43376L14.7228 8.82391L15.067 5.38264C15.1607 4.44479 14.4243 3.63098 13.4817 3.63098H12.9367Z" fill="#333A46"/>
</svg>
