<svg width="24" height="24" viewBox="0 0 24 24" fill="none" xmlns="http://www.w3.org/2000/svg">
<path d="M4.5 7C4.5 6.72386 4.72386 6.5 5 6.5H7C7.27614 6.5 7.5 6.72386 7.5 7V15C7.5 15.2761 7.27614 15.5 7 15.5H5C4.72386 15.5 4.5 15.2761 4.5 15V7Z" fill="#333A46" stroke="#333A46"/>
<path fill-rule="evenodd" clip-rule="evenodd" d="M9.3219 8.06095L11.2189 6.92277C11.467 6.77389 11.7509 6.69525 12.0403 6.69525H16.5831C17.3579 6.69525 18.0208 7.25143 18.1554 8.01436L18.9102 12.2914C19.1034 13.3863 18.1462 14.3386 17.0523 14.1397L14.9019 13.7487C14.2056 13.6221 13.5819 14.1976 13.6524 14.9018L13.9972 18.3505C14.0286 18.6638 13.7825 18.9356 13.4677 18.9356H12.9215L11.852 15.014C11.5408 13.8731 10.5045 13.0815 9.3219 13.0815V14.1459C10.0245 14.1459" fill="#333A46" stroke="#333A46"/>
</svg>
