<svg width="24" height="24" viewBox="0 0 24 24" fill="none" xmlns="http://www.w3.org/2000/svg">
<path d="M4.5 7C4.5 6.72386 4.72386 6.5 5 6.5H7C7.27614 6.5 7.5 6.72386 7.5 7V15C7.5 15.2761 7.27614 15.5 7 15.5H5C4.72386 15.5 4.5 15.2761 4.5 15V7Z" fill="#333A46" stroke="#333A46"/>
<path d="M9.3219 8.06097V6.8197L10.6712 6.01009C11.0848 5.76196 11.558 5.63089 12.0403 5.63089H16.5831C17.8743 5.63089 18.9792 6.55785 19.2036 7.82941L19.9584 12.1064C20.2804 13.9313 18.6851 15.5184 16.8619 15.1869L14.7114 14.7959L15.0563 18.2446C15.1503 19.1845 14.4122 20 13.4677 20H12.9215C12.4415 20 12.0209 19.6788 11.8946 19.2157L10.8251 15.2941C10.6402 14.6162 10.0245 14.1459 9.3219 14.1459V13.5014L9.31999 13.5L9.3219 13.4418V13.0815C9.32583 13.0815 9.32976 13.0816 9.33369 13.0816L9.3219 8.06097Z" fill="#333A46"/>
</svg>
