<svg width="18" height="18" viewBox="0 0 18 18" fill="none" xmlns="http://www.w3.org/2000/svg">
<path d="M13.5 7.5C13.5 7.89894 13.1636 8.39472 12.3119 8.82055C11.4902 9.23143 10.3199 9.5 9 9.5C7.68008 9.5 6.50984 9.23143 5.68807 8.82055C4.8364 8.39472 4.5 7.89894 4.5 7.5C4.5 7.10106 4.8364 6.60528 5.68807 6.17945C6.50984 5.76857 7.68008 5.5 9 5.5C10.3199 5.5 11.4902 5.76857 12.3119 6.17945C13.1636 6.60528 13.5 7.10106 13.5 7.5Z" stroke="#6B707A"/>
<path d="M4.5 7.5V10.5" stroke="#6B707A"/>
<path d="M13.5 7.5V10.5" stroke="#6B707A"/>
<path fill-rule="evenodd" clip-rule="evenodd" d="M4 10.5C4 11.8807 6.23858 13 9 13C11.7614 13 14 11.8807 14 10.5H13C13 10.6075 12.8868 10.9741 12.0883 11.3733C11.3496 11.7427 10.2591 12 9 12C7.74087 12 6.65038 11.7427 5.91168 11.3733C5.11316 10.9741 5 10.6075 5 10.5H4Z" fill="#6B707A"/>
</svg>
